# xmcd CD database file
#
# Track frame offsets:
#	150
#	23495
#	46710
#	70255
#	93740
#	117550
#	140760
#	165020
#	188915
#
# Disc length: 2873 seconds
#
# Revision: 0
# Processed by: cddbd v1.4PL0 Copyright (c) Steve Scherf et al.
# Submitted via: CDex 1.50
#
DISCID=720b3709
DTITLE=YOSHITAKA MIHARA - Progress
DYEAR=1900
DGENRE=Jazz
TTITLE0=Burning Love
TTITLE1=Waikiki Girl
TTITLE2=Urban Night Cruisin'
TTITLE3=Get Your Heart
TTITLE4=Peppermint Kiss (Millennium Ver.)
TTITLE5=Progress
TTITLE6=Paradise Cafe
TTITLE7=Mermaid Samba
TTITLE8=Tenderness
EXTD=
EXTT0=
EXTT1=
EXTT2=
EXTT3=
EXTT4=
EXTT5=
EXTT6=
EXTT7=
EXTT8=
PLAYORDER=
